{
    "asset" : {
        "generator" : "Khronos glTF Blender I/O v0.9.36",
        "version" : "2.0"
    },
    "scene" : 0,
    "scenes" : [
        {
            "name" : "Scene",
            "nodes" : [
                0
            ]
        }
    ],
    "nodes" : [
        {
            "mesh" : 0,
            "name" : "Cube"
        }
    ],
    "materials" : [
        {
            "doubleSided" : true,
            "name" : "Material",
            "pbrMetallicRoughness" : {
                "baseColorTexture" : {
                    "index" : 0,
                    "texCoord" : 0
                },
                "metallicFactor" : 0,
                "roughnessFactor" : 0.5
            }
        }
    ],
    "meshes" : [
        {
            "name" : "Cube.002",
            "primitives" : [
                {
                    "attributes" : {
                        "POSITION" : 0,
                        "NORMAL" : 1,
                        "TEXCOORD_0" : 2
                    },
                    "indices" : 3,
                    "material" : 0
                }
            ]
        }
    ],
    "textures" : [
        {
            "source" : 0
        }
    ],
    "images" : [
        {
            "mimeType" : "image/jpeg",
            "name" : "WoodQuarteredChiffon001_COL_2K",
            "uri" : "WoodQuarteredChiffon001_COL_2K.jpg"
        }
    ],
    "accessors" : [
        {
            "bufferView" : 0,
            "componentType" : 5126,
            "count" : 1780,
            "max" : [
                0.24994437396526337,
                0.24994437396526337,
                0.24994437396526337
            ],
            "min" : [
                -0.24994437396526337,
                -0.24994437396526337,
                -0.24994437396526337
            ],
            "type" : "VEC3"
        },
        {
            "bufferView" : 1,
            "componentType" : 5126,
            "count" : 1780,
            "type" : "VEC3"
        },
        {
            "bufferView" : 2,
            "componentType" : 5126,
            "count" : 1780,
            "type" : "VEC2"
        },
        {
            "bufferView" : 3,
            "componentType" : 5123,
            "count" : 9216,
            "type" : "SCALAR"
        }
    ],
    "bufferViews" : [
        {
            "buffer" : 0,
            "byteLength" : 21360,
            "byteOffset" : 0
        },
        {
            "buffer" : 0,
            "byteLength" : 21360,
            "byteOffset" : 21360
        },
        {
            "buffer" : 0,
            "byteLength" : 14240,
            "byteOffset" : 42720
        },
        {
            "buffer" : 0,
            "byteLength" : 18432,
            "byteOffset" : 56960
        }
    ],
    "buffers" : [
        {
            "byteLength" : 75392,
            "uri" : "Test_Model_02_Diffuse.bin"
        }
    ]
}
