{
    "asset" : {
        "generator" : "Khronos glTF Blender I/O v0.9.36",
        "version" : "2.0"
    },
    "scene" : 0,
    "scenes" : [
        {
            "name" : "Scene",
            "nodes" : [
                0
            ]
        }
    ],
    "nodes" : [
        {
            "mesh" : 0,
            "name" : "Cube.004"
        }
    ],
    "meshes" : [
        {
            "name" : "Cube.007",
            "primitives" : [
                {
                    "attributes" : {
                        "POSITION" : 0,
                        "NORMAL" : 1,
                        "TEXCOORD_0" : 2
                    },
                    "indices" : 3
                }
            ]
        }
    ],
    "accessors" : [
        {
            "bufferView" : 0,
            "componentType" : 5126,
            "count" : 362,
            "max" : [
                0.25,
                0.25,
                0.25
            ],
            "min" : [
                -0.25,
                -0.25,
                -0.25
            ],
            "type" : "VEC3"
        },
        {
            "bufferView" : 1,
            "componentType" : 5126,
            "count" : 362,
            "type" : "VEC3"
        },
        {
            "bufferView" : 2,
            "componentType" : 5126,
            "count" : 362,
            "type" : "VEC2"
        },
        {
            "bufferView" : 3,
            "componentType" : 5123,
            "count" : 1752,
            "type" : "SCALAR"
        }
    ],
    "bufferViews" : [
        {
            "buffer" : 0,
            "byteLength" : 4344,
            "byteOffset" : 0
        },
        {
            "buffer" : 0,
            "byteLength" : 4344,
            "byteOffset" : 4344
        },
        {
            "buffer" : 0,
            "byteLength" : 2896,
            "byteOffset" : 8688
        },
        {
            "buffer" : 0,
            "byteLength" : 3504,
            "byteOffset" : 11584
        }
    ],
    "buffers" : [
        {
            "byteLength" : 15088,
            "uri" : "data:application/octet-stream;base64,"
        }
    ]
}
