{
    "asset" : {
        "generator" : "Khronos glTF Blender I/O v0.9.36",
        "version" : "2.0"
    },
    "scene" : 0,
    "scenes" : [
        {
            "name" : "Scene",
            "nodes" : [
                0
            ]
        }
    ],
    "nodes" : [
        {
            "mesh" : 0,
            "name" : "Cube"
        }
    ],
    "meshes" : [
        {
            "name" : "Cube.002",
            "primitives" : [
                {
                    "attributes" : {
                        "POSITION" : 0,
                        "NORMAL" : 1,
                        "TEXCOORD_0" : 2
                    },
                    "indices" : 3
                }
            ]
        }
    ],
    "accessors" : [
        {
            "bufferView" : 0,
            "componentType" : 5126,
            "count" : 2183,
            "max" : [
                0.24977749586105347,
                0.24977749586105347,
                0.24977749586105347
            ],
            "min" : [
                -0.24977749586105347,
                -0.24977749586105347,
                -0.24977749586105347
            ],
            "type" : "VEC3"
        },
        {
            "bufferView" : 1,
            "componentType" : 5126,
            "count" : 2183,
            "type" : "VEC3"
        },
        {
            "bufferView" : 2,
            "componentType" : 5126,
            "count" : 2183,
            "type" : "VEC2"
        },
        {
            "bufferView" : 3,
            "componentType" : 5123,
            "count" : 9216,
            "type" : "SCALAR"
        }
    ],
    "bufferViews" : [
        {
            "buffer" : 0,
            "byteLength" : 26196,
            "byteOffset" : 0
        },
        {
            "buffer" : 0,
            "byteLength" : 26196,
            "byteOffset" : 26196
        },
        {
            "buffer" : 0,
            "byteLength" : 17464,
            "byteOffset" : 52392
        },
        {
            "buffer" : 0,
            "byteLength" : 18432,
            "byteOffset" : 69856
        }
    ],
    "buffers" : [
        {
            "byteLength" : 88288,
            "uri" : "data:application/octet-stream;base64,"
        }
    ]
}
