{
    "asset" : {
        "generator" : "Khronos glTF Blender I/O v0.9.36",
        "version" : "2.0"
    },
    "scene" : 0,
    "scenes" : [
        {
            "name" : "Scene",
            "nodes" : [
                0
            ]
        }
    ],
    "nodes" : [
        {
            "mesh" : 0,
            "name" : "Cube"
        }
    ],
    "meshes" : [
        {
            "name" : "Cube.002",
            "primitives" : [
                {
                    "attributes" : {
                        "POSITION" : 0,
                        "NORMAL" : 1,
                        "TEXCOORD_0" : 2
                    },
                    "indices" : 3
                }
            ]
        }
    ],
    "accessors" : [
        {
            "bufferView" : 0,
            "componentType" : 5126,
            "count" : 3180,
            "max" : [
                0.2498726099729538,
                0.2498726099729538,
                0.2498726099729538
            ],
            "min" : [
                -0.2498726099729538,
                -0.2498726099729538,
                -0.2498726099729538
            ],
            "type" : "VEC3"
        },
        {
            "bufferView" : 1,
            "componentType" : 5126,
            "count" : 3180,
            "type" : "VEC3"
        },
        {
            "bufferView" : 2,
            "componentType" : 5126,
            "count" : 3180,
            "type" : "VEC2"
        },
        {
            "bufferView" : 3,
            "componentType" : 5123,
            "count" : 14400,
            "type" : "SCALAR"
        }
    ],
    "bufferViews" : [
        {
            "buffer" : 0,
            "byteLength" : 38160,
            "byteOffset" : 0
        },
        {
            "buffer" : 0,
            "byteLength" : 38160,
            "byteOffset" : 38160
        },
        {
            "buffer" : 0,
            "byteLength" : 25440,
            "byteOffset" : 76320
        },
        {
            "buffer" : 0,
            "byteLength" : 28800,
            "byteOffset" : 101760
        }
    ],
    "buffers" : [
        {
            "byteLength" : 130560,
            "uri" : "data:application/octet-stream;base64,"
        }
    ]
}
