{
    "asset" : {
        "generator" : "Khronos glTF Blender I/O v1.4.40",
        "version" : "2.0"
    },
    "scene" : 0,
    "scenes" : [
        {
            "name" : "Scene",
            "nodes" : [
                0,
                1,
                2,
                3,
                4
            ]
        }
    ],
    "nodes" : [
        {
            "mesh" : 0,
            "name" : "Plane"
        },
        {
            "mesh" : 1,
            "name" : "Cube",
            "scale" : [
                0.06148378178477287,
                1,
                1
            ],
            "translation" : [
                -1.302734613418579,
                1.0002245903015137,
                3.8819053173065186
            ]
        },
        {
            "mesh" : 2,
            "name" : "Cube.001",
            "scale" : [
                0.06148378178477287,
                1,
                1
            ],
            "translation" : [
                2.3166675567626953,
                1.0002245903015137,
                3.8819053173065186
            ]
        },
        {
            "mesh" : 3,
            "name" : "Plane.001"
        },
        {
            "mesh" : 4,
            "name" : "Plane.002",
            "translation" : [
                0.3641420304775238,
                3.9712860584259033,
                -3.7688865661621094
            ]
        }
    ],
    "materials" : [
        {
            "doubleSided" : true,
            "name" : "Material.002",
            "pbrMetallicRoughness" : {
                "baseColorFactor" : [
                    0.06900862604379654,
                    0.33432382345199585,
                    0.003636604640632868,
                    1
                ],
                "metallicFactor" : 0,
                "roughnessFactor" : 0.5
            }
        },
        {
            "doubleSided" : true,
            "name" : "Material.001",
            "pbrMetallicRoughness" : {
                "baseColorFactor" : [
                    0.8000000715255737,
                    0.02915194444358349,
                    0.01295738946646452,
                    1
                ],
                "metallicFactor" : 0,
                "roughnessFactor" : 0.5
            }
        },
        {
            "doubleSided" : true,
            "name" : "Material1",
            "pbrMetallicRoughness" : {
                "baseColorFactor" : [
                    0.0011632153764367104,
                    0.07483216375112534,
                    0.8000000715255737,
                    1
                ],
                "metallicFactor" : 0,
                "roughnessFactor" : 0.5
            }
        },
        {
            "doubleSided" : true,
            "name" : "Material.003",
            "pbrMetallicRoughness" : {
                "baseColorFactor" : [
                    0.8000000715255737,
                    0.10449079424142838,
                    0.7402310371398926,
                    1
                ],
                "metallicFactor" : 0,
                "roughnessFactor" : 0.5
            }
        },
        {
            "doubleSided" : true,
            "name" : "Material.004",
            "pbrMetallicRoughness" : {
                "baseColorFactor" : [
                    0.25172582268714905,
                    0.3657800555229187,
                    0.8000000715255737,
                    1
                ],
                "metallicFactor" : 0,
                "roughnessFactor" : 0.5
            }
        }
    ],
    "meshes" : [
        {
            "name" : "Plane",
            "primitives" : [
                {
                    "attributes" : {
                        "POSITION" : 0,
                        "NORMAL" : 1,
                        "TEXCOORD_0" : 2
                    },
                    "indices" : 3,
                    "material" : 0
                }
            ]
        },
        {
            "name" : "Cube.002",
            "primitives" : [
                {
                    "attributes" : {
                        "POSITION" : 4,
                        "NORMAL" : 5,
                        "TEXCOORD_0" : 6
                    },
                    "indices" : 7,
                    "material" : 1
                }
            ]
        },
        {
            "name" : "Cube.003",
            "primitives" : [
                {
                    "attributes" : {
                        "POSITION" : 8,
                        "NORMAL" : 9,
                        "TEXCOORD_0" : 10
                    },
                    "indices" : 11,
                    "material" : 2
                }
            ]
        },
        {
            "name" : "Plane.001",
            "primitives" : [
                {
                    "attributes" : {
                        "POSITION" : 12,
                        "NORMAL" : 13,
                        "TEXCOORD_0" : 14
                    },
                    "indices" : 15,
                    "material" : 3
                }
            ]
        },
        {
            "name" : "Plane.003",
            "primitives" : [
                {
                    "attributes" : {
                        "POSITION" : 16,
                        "NORMAL" : 17,
                        "TEXCOORD_0" : 18
                    },
                    "indices" : 19,
                    "material" : 4
                }
            ]
        }
    ],
    "accessors" : [
        {
            "bufferView" : 0,
            "componentType" : 5126,
            "count" : 322,
            "max" : [
                5,
                3.971285820007324,
                5
            ],
            "min" : [
                -5,
                0,
                -5
            ],
            "type" : "VEC3"
        },
        {
            "bufferView" : 1,
            "componentType" : 5126,
            "count" : 322,
            "type" : "VEC3"
        },
        {
            "bufferView" : 2,
            "componentType" : 5126,
            "count" : 322,
            "type" : "VEC2"
        },
        {
            "bufferView" : 3,
            "componentType" : 5123,
            "count" : 726,
            "type" : "SCALAR"
        },
        {
            "bufferView" : 4,
            "componentType" : 5126,
            "count" : 105,
            "max" : [
                1,
                2.956651210784912,
                1
            ],
            "min" : [
                -58.41920471191406,
                -1.0440342426300049,
                -3.255892515182495
            ],
            "type" : "VEC3"
        },
        {
            "bufferView" : 5,
            "componentType" : 5126,
            "count" : 105,
            "type" : "VEC3"
        },
        {
            "bufferView" : 6,
            "componentType" : 5126,
            "count" : 105,
            "type" : "VEC2"
        },
        {
            "bufferView" : 7,
            "componentType" : 5123,
            "count" : 204,
            "type" : "SCALAR"
        },
        {
            "bufferView" : 8,
            "componentType" : 5126,
            "count" : 100,
            "max" : [
                9.776348114013672,
                2.956651210784912,
                1
            ],
            "min" : [
                -58.41920471191406,
                -1.0440342426300049,
                -3.255892515182495
            ],
            "type" : "VEC3"
        },
        {
            "bufferView" : 9,
            "componentType" : 5126,
            "count" : 100,
            "type" : "VEC3"
        },
        {
            "bufferView" : 10,
            "componentType" : 5126,
            "count" : 100,
            "type" : "VEC2"
        },
        {
            "bufferView" : 11,
            "componentType" : 5123,
            "count" : 204,
            "type" : "SCALAR"
        },
        {
            "bufferView" : 12,
            "componentType" : 5126,
            "count" : 16,
            "max" : [
                5,
                0,
                7.462228298187256
            ],
            "min" : [
                -5,
                0,
                5
            ],
            "type" : "VEC3"
        },
        {
            "bufferView" : 13,
            "componentType" : 5126,
            "count" : 16,
            "type" : "VEC3"
        },
        {
            "bufferView" : 14,
            "componentType" : 5126,
            "count" : 16,
            "type" : "VEC2"
        },
        {
            "bufferView" : 15,
            "componentType" : 5123,
            "count" : 30,
            "type" : "SCALAR"
        },
        {
            "bufferView" : 16,
            "componentType" : 5126,
            "count" : 4,
            "max" : [
                4.635858058929443,
                0,
                8.76888656616211
            ],
            "min" : [
                -5.364141941070557,
                0,
                -1.2311134338378906
            ],
            "type" : "VEC3"
        },
        {
            "bufferView" : 17,
            "componentType" : 5126,
            "count" : 4,
            "type" : "VEC3"
        },
        {
            "bufferView" : 18,
            "componentType" : 5126,
            "count" : 4,
            "type" : "VEC2"
        },
        {
            "bufferView" : 19,
            "componentType" : 5123,
            "count" : 6,
            "type" : "SCALAR"
        }
    ],
    "bufferViews" : [
        {
            "buffer" : 0,
            "byteLength" : 3864,
            "byteOffset" : 0
        },
        {
            "buffer" : 0,
            "byteLength" : 3864,
            "byteOffset" : 3864
        },
        {
            "buffer" : 0,
            "byteLength" : 2576,
            "byteOffset" : 7728
        },
        {
            "buffer" : 0,
            "byteLength" : 1452,
            "byteOffset" : 10304
        },
        {
            "buffer" : 0,
            "byteLength" : 1260,
            "byteOffset" : 11756
        },
        {
            "buffer" : 0,
            "byteLength" : 1260,
            "byteOffset" : 13016
        },
        {
            "buffer" : 0,
            "byteLength" : 840,
            "byteOffset" : 14276
        },
        {
            "buffer" : 0,
            "byteLength" : 408,
            "byteOffset" : 15116
        },
        {
            "buffer" : 0,
            "byteLength" : 1200,
            "byteOffset" : 15524
        },
        {
            "buffer" : 0,
            "byteLength" : 1200,
            "byteOffset" : 16724
        },
        {
            "buffer" : 0,
            "byteLength" : 800,
            "byteOffset" : 17924
        },
        {
            "buffer" : 0,
            "byteLength" : 408,
            "byteOffset" : 18724
        },
        {
            "buffer" : 0,
            "byteLength" : 192,
            "byteOffset" : 19132
        },
        {
            "buffer" : 0,
            "byteLength" : 192,
            "byteOffset" : 19324
        },
        {
            "buffer" : 0,
            "byteLength" : 128,
            "byteOffset" : 19516
        },
        {
            "buffer" : 0,
            "byteLength" : 60,
            "byteOffset" : 19644
        },
        {
            "buffer" : 0,
            "byteLength" : 48,
            "byteOffset" : 19704
        },
        {
            "buffer" : 0,
            "byteLength" : 48,
            "byteOffset" : 19752
        },
        {
            "buffer" : 0,
            "byteLength" : 32,
            "byteOffset" : 19800
        },
        {
            "buffer" : 0,
            "byteLength" : 12,
            "byteOffset" : 19832
        }
    ],
    "buffers" : [
        {
            "byteLength" : 19844,
            "uri" : "NavTest.bin"
        }
    ]
}
